<?xml version="1.0" encoding="UTF-8"?>
<svg version="1.1" xmlns="http://www.w3.org/2000/svg" width="512" height="512">
<path d="M0 0 C4.01000834 2.11436804 7.99464619 4.66043833 9.8359375 8.9453125 C11.32177902 14.95328038 10.98070421 19.50054573 8 25 C5.5 27.5625 5.5 27.5625 3 29 C2.01 29 1.02 29 0 29 C0 38.24 0 47.48 0 57 C1.65 57.66 3.3 58.32 5 59 C8.6925437 63.79032696 9.64719854 67.60333429 9.390625 73.6328125 C8.80451653 77.18462982 7.35077771 79.32272538 5 82 C4.3090625 82.43054688 3.618125 82.86109375 2.90625 83.3046875 C0.74901009 84.89174889 0.74901009 84.89174889 0.390625 87.69921875 C0.34421875 88.68535156 0.2978125 89.67148438 0.25 90.6875 C0.16492188 92.17830078 0.16492188 92.17830078 0.078125 93.69921875 C0.05234375 94.45847656 0.0265625 95.21773438 0 96 C2.29609328 95.11411929 2.29609328 95.11411929 3.25 92.25 C5.57918473 87.92437121 8.54671586 85.22664207 13 83 C18.3835264 82.33117085 22.91355248 82.63883645 27.49609375 85.6796875 C30.16971371 88.02691749 31.87743449 90.66896706 33 94 C33.03427292 95.42408169 33.0393448 96.84908126 33.01953125 98.2734375 C33.32169579 101.35268301 33.7111882 102.6765418 35.79296875 105.00805664 C38.2242574 106.96019928 40.71392101 108.71463261 43.3125 110.4375 C44.18068359 111.04787109 45.04886719 111.65824219 45.94335938 112.28710938 C51.23622752 116.05584523 51.23622752 116.05584523 57 119 C57.66 118.67 58.32 118.34 59 118 C64.68331608 117.40893513 69.14777003 117.72756584 74 121 C77.46354003 124.17491169 78.04096702 126.25926223 78.3125 130.75 C78.76136302 133.56063761 79.26595477 135.3434219 81.42041016 137.27050781 C85.14769472 139.89775095 89.14021191 142.01774572 93.203125 144.07519531 C94.69759426 144.84435965 96.15210219 145.69056728 97.59375 146.5546875 C99.77361647 147.91779021 99.77361647 147.91779021 103 149 C105.41556677 147.73490246 105.41556677 147.73490246 108 146 C113.26008056 145.17939461 118.36029664 145.08457602 123 147.9375 C126.81449366 151.2005006 128.35296096 155.08729615 129 160 C128.95069182 164.27572353 128.22252298 167.57422137 125.40234375 170.86328125 C120.84777471 174.9150104 117.30185062 176.3179434 111.05859375 176.21484375 C106.69017319 175.75893648 103.84979145 173.78088944 100.6875 170.875 C98.41087003 166.99629709 98.19316337 163.43309931 98 159 C96.78957031 158.68482422 96.78957031 158.68482422 95.5546875 158.36328125 C92.53631119 157.20568418 90.40858183 156.06428828 87.7578125 154.29296875 C87.00113281 153.78958984 86.24445313 153.28621094 85.46484375 152.76757812 C83.90116229 151.7116363 82.34895344 150.63850922 80.80859375 149.54882812 C76.65673555 146.66019992 76.65673555 146.66019992 71.82983398 146.36376953 C69.7501071 147.17952725 69.7501071 147.17952725 67.78613281 148.17700195 C64.46916473 149.70536436 61.6604768 148.70971469 58.26953125 147.87109375 C53.75903306 146.13986983 51.59143675 142.88715512 49 139 C49.03090202 137.31162576 49.0977274 135.62376907 49.1875 133.9375 C48.89467248 129.76056412 48.31399953 128.32562914 45.36328125 125.265625 C42.58403127 123.02759739 39.65319928 121.03600066 36.65966797 119.09716797 C35.17895942 118.11830592 33.75788696 117.05057928 32.34765625 115.97265625 C30.26970479 114.40620053 28.37891015 113.05351735 26 112 C22.89190405 112.59155349 22.89190405 112.59155349 20 114 C14.33273819 114.21753126 10.44038377 112.57396742 6 109 C5.67 108.34 5.34 107.68 5 107 C2.97536745 106.34786708 2.97536745 106.34786708 1 106 C5.41872393 151.07548156 14.17392482 193.18454601 29 236 C29.43957031 235.06800781 29.87914062 234.13601563 30.33203125 233.17578125 C32.57010913 228.9145229 35.229098 225.91800208 39.921875 224.36328125 C44.98303981 223.45109457 48.49190944 224.39917852 53 227 C56.94963478 230.53388375 57.55491343 233.75820852 58.01953125 238.81640625 C58 241 58 241 57.33203125 243.0859375 C57.22246094 243.71757812 57.11289062 244.34921875 57 245 C58.10669167 246.64141793 58.10669167 246.64141793 59.875 248.0625 C62.93809326 250.90809551 65.58241998 253.85317189 68.1875 257.125 C71.63760653 261.41559245 75.23762243 265.48675763 79 269.5 C83.64570508 274.45743787 88.01370772 279.54645123 92.2578125 284.85546875 C93.97161512 287.04026003 93.97161512 287.04026003 96 289 C97.89061062 289.17500341 99.7893464 289.26724916 101.6875 289.3125 C107.40572756 289.71702689 111.12527405 290.66211439 115 295 C117.99682848 299.6825445 118.11097612 301.77830086 116.9375 307.125 C116.54519006 310.06530232 116.42331438 312.05997722 118.00439453 314.63720703 C120.87926839 318.23106062 124.18013382 321.40297636 127.51416016 324.56640625 C129.35762585 326.34505077 131.03042544 328.23522213 132.6875 330.1875 C135.20702265 333.10355769 137.78021982 335.96315447 140.375 338.8125 C143.46636801 342.23229328 146.42459032 345.71958524 149.3125 349.3125 C153.19802762 354.12024709 157.29882732 358.66167327 161.55786133 363.13696289 C164.8726588 366.65198657 167.68463141 370.31256422 170.5 374.25 C172.96983582 377.36884377 174.17145815 378.78330444 178.046875 379.796875 C181.20719271 380.05379935 181.20719271 380.05379935 184.203125 379.875 C187.62849393 380.02808911 189.26543151 380.97595187 192 383 C195.65329965 387.83815358 196.64831324 391.5771388 196.390625 397.6328125 C195.64541455 402.14878784 193.28436529 404.87131535 189.9375 407.8125 C185.8338935 410.32761366 181.68106169 410.48853585 177 410 C172.30005971 408.28271412 169.79040501 406.13393334 167 402 C166.06257459 399.18772378 165.86529156 397.41253156 165.875 394.5 C165.87242187 393.7265625 165.86984375 392.953125 165.8671875 392.15625 C166 390 166 390 167 387 C166.28714844 386.2265625 165.57429688 385.453125 164.83984375 384.65625 C158.53862004 377.80886875 152.32375083 370.90829171 146.29296875 363.8203125 C140.46970634 356.98373018 134.55370857 350.26569674 128.45703125 343.671875 C125.84035924 340.82640019 123.29143056 337.93088739 120.7578125 335.01171875 C117.22123416 330.96430132 113.63157649 326.96235962 110 323 C109.2575 322.11054687 109.2575 322.11054687 108.5 321.203125 C106.46148261 319.56806418 105.31332236 319.8160267 102.75 320.0625 C97.89512181 320.19669989 94.61094212 319.33965372 91 316 C87.50488067 311.23298813 86.43021883 306.92572412 87 301 C87.24105469 300.34644531 87.48210937 299.69289063 87.73046875 299.01953125 C88.25437043 296.9059062 88.25437043 296.9059062 86.6640625 295.24609375 C85.99117187 294.64925781 85.31828125 294.05242187 84.625 293.4375 C81.40161349 290.41453131 78.56052032 287.33679184 75.8125 283.875 C71.7051829 278.7532678 67.32991671 273.96486822 62.80029297 269.21923828 C60.22047487 266.49320788 57.77163896 263.79242684 55.58984375 260.734375 C51.71511228 255.16599726 51.71511228 255.16599726 45.95703125 251.94921875 C42.80307432 251.39479277 42.80307432 251.39479277 39.796875 251.24609375 C37 251 37 251 34.4296875 249.8828125 C31.39863972 248.78149932 30.28676308 249.15172146 27.375 250.4375 C23.78724479 252.1869013 23.10886531 252.78977733 21.1875 256.5 C20.795625 257.655 20.40375 258.81 20 260 C19.32487366 260.59975647 18.64974731 261.19951294 17.9541626 261.81744385 C15.31607845 264.76385516 15.51555486 266.50657745 15.54589844 270.42089844 C15.54635162 272.37246857 15.54635162 272.37246857 15.54681396 274.36346436 C15.56723914 275.77877415 15.5881031 277.19407768 15.609375 278.609375 C15.61683855 280.06096619 15.62253095 281.51256748 15.62652588 282.96417236 C15.64177357 286.77846258 15.68104691 290.59214021 15.7253418 294.40618896 C15.76631377 298.30065627 15.78454094 302.19522289 15.8046875 306.08984375 C15.84754287 313.72684129 15.91578261 321.3633347 16 329 C17.16789062 329.41958984 17.16789062 329.41958984 18.359375 329.84765625 C21.66797707 331.29149887 22.98281949 333.0462714 25 336 C26.63509159 340.90527476 26.39374496 344.77731827 24.8125 349.6875 C22.91591286 353.1536765 21.30494837 354.88144335 18 357 C17.34 357 16.68 357 16 357 C16.00523682 357.54035889 16.01047363 358.08071777 16.01586914 358.63745117 C16.22533606 384.76248325 15.54170019 410.88234321 15 437 C16.16595703 437.41958984 16.16595703 437.41958984 17.35546875 437.84765625 C21.20085445 439.52326745 22.2062449 441.21318368 24 445 C25.04495548 450.84996444 24.81170963 455.59735899 21.375 460.5625 C18.53474491 463.79337293 16.36757557 465.40052884 12 466 C5.99036404 466.05414086 1.62983959 465.07866821 -3 461 C-6.31249425 456.25209157 -6.87984611 451.62123901 -6 446 C-4.98281355 443.16172169 -3.84480431 441.4929788 -2 439 C-1.14279861 438.59714279 -0.28559723 438.19428558 0.59757996 437.77922058 C3.3606158 436.1484535 3.3606158 436.1484535 3.67720032 432.64009094 C3.72717344 431.22988697 3.74981509 429.81855915 3.7512207 428.4074707 C3.77145798 427.63650055 3.79169525 426.8655304 3.81254578 426.07119751 C3.87363594 423.52262278 3.89983004 420.97493604 3.92578125 418.42578125 C3.96133054 416.65882497 3.99905326 414.89191118 4.03886414 413.12504578 C4.13780003 408.47443146 4.20716422 403.82382531 4.27044678 399.17260742 C4.34022947 394.42657403 4.43787692 389.68112377 4.53320312 384.93554688 C4.71612677 375.62405715 4.8678245 366.31233862 5 357 C4.22140625 356.72285156 3.4428125 356.44570313 2.640625 356.16015625 C-1.115084 354.51008883 -2.14977001 352.63438034 -4 349 C-5.40618991 344.12340551 -5.47028287 340.2646596 -3.3125 335.625 C-1.63215367 332.70619772 -0.03334783 330.61778551 3 329 C3.66 329 4.32 329 5 329 C4.98747192 328.45115143 4.97494385 327.90230286 4.96203613 327.33682251 C4.82983372 321.52733566 4.70052308 315.71778913 4.57275391 309.90820312 C4.52496507 307.75161167 4.47648411 305.59503542 4.42724609 303.43847656 C4.12757889 290.28981366 3.92473698 277.15221305 4 264 C3.38511719 263.87367188 2.77023438 263.74734375 2.13671875 263.6171875 C-0.7716706 262.77710429 -2.0573079 261.27763901 -4 259 C-5.35698258 254.92905226 -5.52387231 251.25646256 -5 247 C-2.80850458 242.61700917 -0.59809038 239.79925276 4 238 C9.26901159 237.46024759 13.28957419 237.50149118 18 240 C17.51756836 238.61554688 17.51756836 238.61554688 17.02539062 237.203125 C3.17868346 197.30255286 -5.96386535 157.81806939 -9.69042969 115.64013672 C-9.95998274 113.34128289 -10.37291737 111.22383302 -11 109 C-11.66 109 -12.32 109 -13 109 C-13.020625 109.70125 -13.04125 110.4025 -13.0625 111.125 C-14.46791717 115.43494598 -17.10107392 117.75280079 -21 120 C-23.3359375 120.33203125 -23.3359375 120.33203125 -25.8125 120.5 C-29.66843932 121.0255415 -31.40373927 122.17557103 -33.79296875 125.12109375 C-36.37818249 128.63481592 -38.70657424 132.29082488 -41 136 C-41.66 136.99 -42.32 137.98 -43 139 C-42.71979545 141.0081326 -42.37593066 143.0075675 -42 145 C-41.49943139 150.45184505 -41.89732689 154.29249597 -45 159 C-48.11697469 162.40033603 -50.36990994 163.10840685 -54.7890625 163.5703125 C-59.0060468 164.37040911 -60.91274224 165.40436932 -63.48828125 168.8515625 C-64.46316138 170.42242198 -65.40428007 172.01468098 -66.3125 173.625 C-66.81716797 174.40746094 -67.32183594 175.18992188 -67.84179688 175.99609375 C-70.47892324 180.32776929 -70.47892324 180.32776929 -70.61645508 185.22509766 C-69.83714768 187.31898533 -69.83714768 187.31898533 -68.81494141 189.17675781 C-67.25774294 192.66062785 -68.11719441 195.35107022 -69 199 C-71.29474148 203.77306228 -74.02794368 206.26591106 -78.7890625 208.36328125 C-82.74964989 209.50387444 -86.1075945 209.32537105 -90 208 C-93.64380806 205.79708943 -96.2355448 203.26301294 -98.4375 199.625 C-99.66445836 193.89919431 -99.80451187 189.81794229 -96.9375 184.6875 C-94.24777636 180.81247442 -91.55925265 179.35977711 -87 178 C-86.04867187 177.97164062 -85.09734375 177.94328125 -84.1171875 177.9140625 C-79.3998874 176.53079405 -77.98569608 173.40186977 -75.5625 169.3125 C-75.10423828 168.60416016 -74.64597656 167.89582031 -74.17382812 167.16601562 C-72.08612166 163.75578018 -70.95851493 161.82081176 -71.1640625 157.75390625 C-71.57785156 156.39072266 -71.57785156 156.39072266 -72 155 C-73.17138684 149.17310135 -73.43281982 144.99902064 -70.35546875 139.7265625 C-68.02292203 136.7554223 -65.54712847 135.22696783 -62 134 C-60.56045516 133.95644317 -59.11986656 133.94080315 -57.6796875 133.94921875 C-54.70607133 133.65444289 -53.36418681 133.32522575 -51.11499023 131.31665039 C-49.34619163 129.03809829 -47.81689744 126.71069594 -46.3125 124.25 C-45.76400391 123.43789062 -45.21550781 122.62578125 -44.65039062 121.7890625 C-43.22003856 119.55720438 -41.97292796 117.46593437 -41 115 C-41.48730045 112.16382404 -41.48730045 112.16382404 -43 110 C-43.44688145 104.36929379 -43.22028305 100.83042458 -40 96 C-36.31397237 92.14252923 -33.3491636 90.2227829 -28.08984375 89.859375 C-23.67089544 90.15672479 -19.6376835 91.59521505 -16.26953125 94.484375 C-15 96 -15 96 -15 98 C-13.68 98 -12.36 98 -11 98 C-11 93.71 -11 89.42 -11 85 C-12.98 84.505 -12.98 84.505 -15 84 C-19.96426436 78.5739436 -21.35126951 75.72787837 -21.2890625 68.54296875 C-20.87253148 64.8786215 -19.36323907 62.76836577 -17 60 C-16.2265625 59.071875 -16.2265625 59.071875 -15.4375 58.125 C-14 57 -14 57 -11 57 C-11 47.76 -11 38.52 -11 29 C-12.65 28.34 -14.3 27.68 -16 27 C-19.47497375 22.39800773 -20.61414955 18.89983115 -20.3203125 13.140625 C-19.62880912 8.51935851 -17.8614884 5.77744075 -14.4375 2.6875 C-9.72670383 -0.57382042 -5.63736376 -0.64080633 0 0 Z M-6 10 C-6.99 10.66 -7.98 11.32 -9 12 C-9.41666667 15 -9.41666667 15 -9 18 C-8.34 18.66 -7.68 19.32 -7 20 C-3.70285207 19.67028521 -2.3773161 19.3773161 0 17 C0.07272562 14.44539786 0.07272562 14.44539786 -1 12 C-3.30535635 10.42776606 -3.30535635 10.42776606 -6 10 Z M-8 66 C-10.00719496 68.17862819 -10.00719496 68.17862819 -11 71 C-10.59130748 73.31749122 -10.59130748 73.31749122 -9 75 C-7.16666667 76.16666667 -7.16666667 76.16666667 -5 76 C-2.58333333 74.41666667 -2.58333333 74.41666667 -1 72 C-1.17753613 68.98188578 -1.83735215 68.16264785 -4 66 C-5.32 66 -6.64 66 -8 66 Z M17 93 C14.67488528 94.26352052 14.67488528 94.26352052 13 96 C13.33 97.98 13.66 99.96 14 102 C16.90073181 102.67801034 16.90073181 102.67801034 20 103 C22.34973818 101.10244856 22.34973818 101.10244856 22.125 97.875 C22.08375 96.92625 22.0425 95.9775 22 95 C19.73398135 93.70957237 19.73398135 93.70957237 17 93 Z M-32 103 C-32.33333333 105.5 -32.33333333 105.5 -32 108 C-30.17296773 110.2491908 -30.17296773 110.2491908 -27.5 110.25 C-24.82703227 110.2491908 -24.82703227 110.2491908 -23 108 C-23.18757062 104.17435335 -23.18757062 104.17435335 -25 101 C-28.961168 100.60909667 -28.961168 100.60909667 -32 103 Z M61 129 C58.735616 131.69155201 58.735616 131.69155201 59.25 134.0625 C59.92532718 136.19476975 59.92532718 136.19476975 62 138 C64.54713404 137.99077298 64.54713404 137.99077298 67 137 C68.48396654 135.19907702 68.48396654 135.19907702 69 133 C68.67 132.01 68.34 131.02 68 130 C65.69 129.67 63.38 129.34 61 129 Z M-60.75 145.1875 C-62.24246928 146.9846239 -62.24246928 146.9846239 -62 149.5625 C-61.20869776 152.24375877 -61.20869776 152.24375877 -58.4375 153.3125 C-57.633125 153.539375 -56.82875 153.76625 -56 154 C-53.72471531 152.19873295 -53.05317819 151.3633843 -52.625 148.4375 C-52.74875 147.633125 -52.8725 146.82875 -53 146 C-56.0999373 143.93337513 -57.52940482 143.00209613 -60.75 145.1875 Z M111 156 C108.65026182 157.89755144 108.65026182 157.89755144 108.875 161.125 C108.91625 162.07375 108.9575 163.0225 109 164 C111.26601865 165.29042763 111.26601865 165.29042763 114 166 C116.32511472 164.73647948 116.32511472 164.73647948 118 163 C117.42547254 159.06924356 117.42547254 159.06924356 115 156 C113.68 156 112.36 156 111 156 Z M-88 191 C-88.41666667 193.5 -88.41666667 193.5 -88 196 C-85.21885944 198.33391203 -85.21885944 198.33391203 -82.3125 197.625 C-81.549375 197.41875 -80.78625 197.2125 -80 197 C-79.32198966 194.09926819 -79.32198966 194.09926819 -79 191 C-80.82703227 188.7508092 -80.82703227 188.7508092 -83.5 188.75 C-86.17296773 188.7508092 -86.17296773 188.7508092 -88 191 Z M42 235 C40.70366379 236.06645115 40.70366379 236.06645115 40.9375 238.5625 C40.958125 239.366875 40.97875 240.17125 41 241 C41.99 241.33 42.98 241.66 44 242 C44.99 241.34 45.98 240.68 47 240 C47 238.68 47 237.36 47 236 C45.34385343 235.61781233 43.67542976 235.28604898 42 235 Z M7 248 C6.34 249.32 5.68 250.64 5 252 C5.99 252.99 6.98 253.98 8 255 C9.32 254.34 10.64 253.68 12 253 C11.67 251.68 11.34 250.36 11 249 C9.68 248.67 8.36 248.34 7 248 Z M99.25 301.1875 C97.75753072 302.9846239 97.75753072 302.9846239 98 305.5625 C98.79130224 308.24375877 98.79130224 308.24375877 101.5625 309.3125 C102.366875 309.539375 103.17125 309.76625 104 310 C106.27528469 308.19873295 106.94682181 307.3633843 107.375 304.4375 C107.25125 303.633125 107.1275 302.82875 107 302 C103.9000627 299.93337513 102.47059518 299.00209613 99.25 301.1875 Z M7.25 339.1875 C5.75753072 340.9846239 5.75753072 340.9846239 6 343.5625 C6.79130224 346.24375877 6.79130224 346.24375877 9.5625 347.3125 C10.366875 347.539375 11.17125 347.76625 12 348 C14.27528469 346.19873295 14.94682181 345.3633843 15.375 342.4375 C15.25125 341.633125 15.1275 340.82875 15 340 C11.9000627 337.93337513 10.47059518 337.00209613 7.25 339.1875 Z M179 390 C177.37249963 392.32323453 177.37249963 392.32323453 176 395 C176.33 395.99 176.66 396.98 177 398 C179.50447516 399.21869929 179.50447516 399.21869929 182 400 C184.16641665 398.33454661 184.16641665 398.33454661 186 396 C185.85974801 393.29294488 185.85974801 393.29294488 185 391 C182.03 390.505 182.03 390.505 179 390 Z M7 446 C5.1375562 448.40858714 5.1375562 448.40858714 4 451 C4.99 452.32 5.98 453.64 7 455 C10.93075644 454.42547254 10.93075644 454.42547254 14 452 C13.71016731 448.69316534 13.71016731 448.69316534 12 446 C9.58517587 445.49940084 9.58517587 445.49940084 7 446 Z " fill="#000000" transform="translate(210,25)"/>
<path d="M0 0 C3 0.25 3 0.25 5 2.25 C5.19893477 5.28264375 5.27263074 8.22400566 5.25878906 11.2578125 C5.2622937 12.19123474 5.26579834 13.12465698 5.26940918 14.08636475 C5.27823702 17.18265137 5.27237361 20.27871091 5.265625 23.375 C5.26697135 25.51969446 5.26891162 27.66438862 5.27142334 29.80908203 C5.27437603 34.30829773 5.27007228 38.80743413 5.26074219 43.30664062 C5.24934761 49.08409945 5.2559063 54.86137247 5.26788712 60.63882446 C5.27510179 65.06878061 5.27281959 69.49869245 5.26763153 73.9286499 C5.26629395 76.05938743 5.26794653 78.19012893 5.27259064 80.32086182 C5.2776494 83.29474601 5.26995476 86.26832605 5.25878906 89.2421875 C5.26283752 90.12952576 5.26688599 91.01686401 5.27105713 91.93109131 C5.2285276 98.0214724 5.2285276 98.0214724 3 100.25 C-0.02693681 100.45944657 -2.96309255 100.54362665 -5.99194336 100.54052734 C-7.38966728 100.55060318 -7.38966728 100.55060318 -8.81562805 100.56088257 C-11.90708698 100.57993722 -14.9983297 100.58379044 -18.08984375 100.5859375 C-20.23214306 100.59235995 -22.37444147 100.59908788 -24.51673889 100.60610962 C-29.01174962 100.61810089 -33.50668338 100.62178851 -38.00170898 100.62060547 C-43.77023981 100.62040211 -49.53827889 100.6477136 -55.30669308 100.68214989 C-59.73240947 100.70435314 -64.15800626 100.70844504 -68.58377266 100.70738602 C-70.71090961 100.70975155 -72.8380494 100.71862821 -74.96513176 100.73405075 C-77.93666207 100.75357898 -80.90711561 100.74792471 -83.87866211 100.73583984 C-84.76240509 100.74707886 -85.64614807 100.75831787 -86.55667114 100.76989746 C-92.48760135 100.70839573 -92.48760135 100.70839573 -95.08180237 98.38760376 C-96.28240248 95.59255483 -95.99758085 94.08926858 -95 91.25 C-91.7709039 89.63545195 -88.24141342 90.12084219 -84.69482422 90.13647461 C-83.83621796 90.13632858 -82.97761169 90.13618256 -82.09298706 90.1360321 C-79.24686176 90.13673037 -76.40080141 90.14451875 -73.5546875 90.15234375 C-71.58456457 90.15420824 -69.61444118 90.15563199 -67.64431763 90.15663147 C-62.45260341 90.16045424 -57.26091706 90.17028249 -52.06921387 90.18133545 C-46.774011 90.19155472 -41.47880363 90.1961302 -36.18359375 90.20117188 C-25.78905024 90.21190496 -15.39452744 90.22897852 -5 90.25 C-5.00444122 89.15197052 -5.00888245 88.05394104 -5.01345825 86.92263794 C-5.05393968 76.59253991 -5.08395324 66.2624579 -5.10362434 55.93229866 C-5.11407729 50.62101062 -5.12826397 45.30978644 -5.15087891 39.99853516 C-5.17255352 34.87627405 -5.18455723 29.7540745 -5.18975449 24.63177109 C-5.19345994 22.6740713 -5.20069541 20.71637502 -5.21146011 18.75870132 C-5.22590357 16.02411779 -5.22798096 13.2897911 -5.22705078 10.55517578 C-5.23424133 9.73950134 -5.24143188 8.9238269 -5.24884033 8.08343506 C-5.22054636 0.43504553 -5.22054636 0.43504553 0 0 Z " fill="#000000" transform="translate(490,394.75)"/>
<path d="M0 0 C0.93327621 -0.0049649 1.86655243 -0.00992981 2.82810974 -0.01504517 C5.92976607 -0.02970622 9.03137129 -0.03647491 12.13305664 -0.04199219 C14.27917992 -0.04773987 16.42530317 -0.05349764 18.57142639 -0.05926514 C23.0765914 -0.06978601 27.58173849 -0.07562173 32.08691406 -0.07910156 C37.87228723 -0.08459217 43.65742573 -0.1086278 49.44272518 -0.13707352 C53.87696535 -0.15565485 58.31114845 -0.16090306 62.74542427 -0.16243744 C64.87896573 -0.16547411 67.01250596 -0.17353647 69.14600945 -0.18662262 C72.12486749 -0.20359112 75.10314511 -0.20182562 78.08203125 -0.1953125 C79.4153952 -0.20913467 79.4153952 -0.20913467 80.7756958 -0.22323608 C83.22740173 -0.20635986 83.22740173 -0.20635986 87.10571289 0.16113281 C89.75499638 4.13505805 89.38585795 7.57817771 89.36450195 12.19067383 C89.36800659 13.11448853 89.37151123 14.03830322 89.37512207 14.9901123 C89.383936 18.0484973 89.37809187 21.10665165 89.37133789 24.16503906 C89.37268452 26.28588404 89.37462504 28.40672871 89.37713623 30.52757263 C89.38008694 34.9737339 89.37579109 39.41981485 89.36645508 43.8659668 C89.35505367 49.57501641 89.36162476 55.28387814 89.37360001 60.99292088 C89.38081409 65.37226283 89.37853287 69.75155996 89.37334442 74.13090324 C89.37200703 76.23652099 89.37365874 78.34214276 89.37830353 80.44775581 C89.38336209 83.38560963 89.37566826 86.32315555 89.36450195 89.26098633 C89.36855042 90.1374028 89.37259888 91.01381927 89.37677002 91.91679382 C89.33424204 97.93260366 89.33424204 97.93260366 87.10571289 100.16113281 C83.54321289 100.34863281 83.54321289 100.34863281 80.10571289 100.16113281 C78.28332627 98.33874619 78.98573593 95.81357199 78.98129272 93.38865662 C78.98668564 92.14572594 78.98668564 92.14572594 78.9921875 90.87768555 C78.99204147 90.00947174 78.99189545 89.14125793 78.991745 88.24673462 C78.99244443 85.36270695 79.00023827 82.47874302 79.00805664 79.59472656 C79.00992071 77.60075414 79.01134466 75.60678127 79.01234436 73.61280823 C79.01617041 68.35367579 79.02600144 63.09457078 79.03704834 57.83544922 C79.04726059 52.47331107 79.05184158 47.1111685 79.05688477 41.74902344 C79.06762363 31.21971448 79.08470109 20.69042592 79.10571289 10.16113281 C78.00990402 10.17001526 76.91409515 10.17889771 75.78507996 10.18804932 C65.47005497 10.26905275 55.15509432 10.32905855 44.83982372 10.3683815 C39.53631039 10.38927735 34.23305332 10.41763154 28.9296875 10.46289062 C23.81388637 10.50627698 18.69833209 10.53025486 13.58236122 10.54064178 C11.62824935 10.54804612 9.67415135 10.56250471 7.72014427 10.58405304 C4.98793466 10.61299131 2.25675167 10.61709286 -0.47558594 10.61523438 C-1.2876651 10.62961548 -2.09974426 10.64399658 -2.93643188 10.65881348 C-8.38455827 10.61857898 -8.38455827 10.61857898 -10.96733093 8.30072021 C-11.89428711 6.16113281 -11.89428711 6.16113281 -11.14428711 3.47363281 C-8.59399061 -1.24441571 -4.90148039 0.00614991 0 0 Z " fill="#000000" transform="translate(405.894287109375,16.8388671875)"/>
<path d="M0 0 C1.39772392 -0.01248528 1.39772392 -0.01248528 2.82368469 -0.02522278 C5.91513196 -0.04939034 9.00636858 -0.05810269 12.09790039 -0.06469727 C14.24019944 -0.07365772 16.38249783 -0.08277945 18.52479553 -0.09205627 C23.01980107 -0.10856671 27.51473192 -0.11625025 32.00976562 -0.11914062 C37.77839234 -0.12452968 43.54632052 -0.16222291 49.31474972 -0.20788479 C53.74046919 -0.23757971 58.16601884 -0.24486252 62.5918293 -0.24586678 C64.71898158 -0.25008335 66.84613373 -0.26257473 68.9731884 -0.28338432 C71.94489276 -0.31014471 74.91495675 -0.30551933 77.88671875 -0.29296875 C78.77046173 -0.30780304 79.65420471 -0.32263733 80.56472778 -0.33792114 C82.82764312 -0.31061027 84.81707335 -0.26045938 87.00805664 0.30639648 C89.07814026 2.84385681 89.07814026 2.84385681 90.00805664 5.30639648 C89.03422546 7.7709198 89.03422546 7.7709198 87.00805664 10.30639648 C84.01308394 10.79288957 81.58474989 10.94033021 78.58935547 10.87402344 C77.73060318 10.87475357 76.87185089 10.8754837 75.98707581 10.87623596 C73.14577279 10.8727497 70.30610482 10.83384032 67.46508789 10.79467773 C65.49640295 10.78535329 63.52770642 10.77823544 61.55900574 10.77323914 C56.37521378 10.75414039 51.19212135 10.70501459 46.00860596 10.64971924 C40.72010767 10.59858889 35.43149643 10.57573837 30.14282227 10.55053711 C19.76425956 10.49689882 9.38621625 10.41155105 -0.99194336 10.30639648 C-0.98750214 11.40442596 -0.98306091 12.50245544 -0.97848511 13.63375854 C-0.93800368 23.96385657 -0.90799012 34.29393858 -0.88831902 44.62409782 C-0.87786607 49.93538586 -0.86367939 55.24661005 -0.84106445 60.55786133 C-0.81938984 65.68012243 -0.80738613 70.80232199 -0.80218887 75.9246254 C-0.79848342 77.88232518 -0.79124795 79.84002146 -0.78048325 81.79769516 C-0.76603979 84.53227869 -0.7639624 87.26660539 -0.76489258 90.0012207 C-0.75770203 90.81689514 -0.75051147 91.63256958 -0.74310303 92.47296143 C-0.76383904 98.07829216 -0.76383904 98.07829216 -2.99194336 100.30639648 C-5.99194336 100.55639648 -5.99194336 100.55639648 -8.99194336 100.30639648 C-11.66319916 97.63514069 -11.23763591 95.61978662 -11.26300049 91.98748779 C-11.25895203 91.10014954 -11.25490356 90.21281128 -11.25073242 89.29858398 C-11.25423706 88.36516174 -11.2577417 87.4317395 -11.26135254 86.47003174 C-11.27018038 83.37374512 -11.26431697 80.27768557 -11.25756836 77.18139648 C-11.25891471 75.03670203 -11.26085498 72.89200786 -11.2633667 70.74731445 C-11.26631939 66.24809875 -11.26201564 61.74896236 -11.25268555 57.24975586 C-11.24129097 51.47229704 -11.24784966 45.69502402 -11.25983047 39.91757202 C-11.26704514 35.48761588 -11.26476295 31.05770404 -11.25957489 26.62774658 C-11.2582373 24.49700906 -11.25988989 22.36626755 -11.264534 20.23553467 C-11.26959276 17.26165047 -11.26189812 14.28807043 -11.25073242 11.31420898 C-11.25680511 9.9832016 -11.25680511 9.9832016 -11.26300049 8.62530518 C-11.20032938 -0.34942072 -7.99298688 0.00599788 0 0 Z " fill="#000000" transform="translate(27.991943359375,16.693603515625)"/>
<path d="M0 0 C3 0.25 3 0.25 5 2.25 C5.18813821 5.05149514 5.2517501 7.75336003 5.22705078 10.55517578 C5.22734283 11.41378204 5.22763489 12.27238831 5.22793579 13.15701294 C5.22653922 16.00321457 5.21096273 18.84915644 5.1953125 21.6953125 C5.19158353 23.66543434 5.18873601 25.63555802 5.18673706 27.60568237 C5.17909146 32.79743548 5.15943504 37.98907714 5.1373291 43.18078613 C5.1168906 48.4759775 5.10773962 53.77118683 5.09765625 59.06640625 C5.07619001 69.46098654 5.04204292 79.85548401 5 90.25 C6.64704422 90.24333817 6.64704422 90.24333817 8.32736206 90.23654175 C18.65746009 90.19606032 28.9875421 90.16604676 39.31770134 90.14637566 C44.62898938 90.13592271 49.94021356 90.12173603 55.25146484 90.09912109 C60.37372595 90.07744648 65.4959255 90.06544277 70.61822891 90.06024551 C72.5759287 90.05654006 74.53362498 90.04930459 76.49129868 90.03853989 C79.22588221 90.02409643 81.9602089 90.02201904 84.69482422 90.02294922 C85.51049866 90.01575867 86.3261731 90.00856812 87.16656494 90.00115967 C92.77189568 90.02189568 92.77189568 90.02189568 95 92.25 C95.25 95.25 95.25 95.25 95 98.25 C92.3287442 100.9212558 90.31339014 100.49569255 86.68109131 100.52105713 C85.79375305 100.51700867 84.90641479 100.51296021 83.9921875 100.50878906 C82.59205414 100.51404602 82.59205414 100.51404602 81.16363525 100.51940918 C78.06734863 100.52823702 74.97128909 100.52237361 71.875 100.515625 C69.73030554 100.51697135 67.58561138 100.51891162 65.44091797 100.52142334 C60.94170227 100.52437603 56.44256587 100.52007228 51.94335938 100.51074219 C46.16590055 100.49934761 40.38862753 100.5059063 34.61117554 100.51788712 C30.18121939 100.52510179 25.75130755 100.52281959 21.3213501 100.51763153 C19.19061257 100.51629395 17.05987107 100.51794653 14.92913818 100.52259064 C11.95525399 100.5276494 8.98167395 100.51995476 6.0078125 100.50878906 C5.12047424 100.51283752 4.23313599 100.51688599 3.31890869 100.52105713 C-2.7714724 100.4785276 -2.7714724 100.4785276 -5 98.25 C-5.19893477 95.21735625 -5.27263074 92.27599434 -5.25878906 89.2421875 C-5.2622937 88.30876526 -5.26579834 87.37534302 -5.26940918 86.41363525 C-5.27823702 83.31734863 -5.27237361 80.22128909 -5.265625 77.125 C-5.26697135 74.98030554 -5.26891162 72.83561138 -5.27142334 70.69091797 C-5.27437603 66.19170227 -5.27007228 61.69256587 -5.26074219 57.19335938 C-5.24934761 51.41590055 -5.2559063 45.63862753 -5.26788712 39.86117554 C-5.27510179 35.43121939 -5.27281959 31.00130755 -5.26763153 26.5713501 C-5.26629395 24.44061257 -5.26794653 22.30987107 -5.27259064 20.17913818 C-5.2776494 17.20525399 -5.26995476 14.23167395 -5.25878906 11.2578125 C-5.26486176 9.92680511 -5.26486176 9.92680511 -5.27105713 8.56890869 C-5.21425416 0.43452118 -5.21425416 0.43452118 0 0 Z " fill="#000000" transform="translate(22,394.75)"/>
</svg>
